<svg width="66" height="47" viewBox="0 0 66 47" fill="none" xmlns="http://www.w3.org/2000/svg">
<rect width="66" height="46.9419" fill="black" fill-opacity="0"/>
<rect width="28.6062" height="25.8447" fill="black" fill-opacity="0" transform="translate(11.3938)"/>
<path d="M11.8987 12.752C11.6207 12.27 11.7894 11.6534 12.2741 11.3801L31.1683 0.726176C31.6447 0.457525 32.2483 0.621701 32.523 1.09468L39.4501 13.0214C39.7454 13.5299 39.5406 14.1825 39.0078 14.4311L19.2397 23.6532C18.7699 23.8724 18.2108 23.696 17.9518 23.2469L11.8987 12.752Z" fill="#B3CEE1"/>
<line y1="-0.5" x2="14.057" y2="-0.5" transform="matrix(0.530519 0.847673 -0.847189 0.531292 26.7009 3.83067)" stroke="#1E201D" stroke-opacity="0.51" stroke-dasharray="2 2"/>
<rect width="26.425" height="22.669" fill="black" fill-opacity="0" transform="translate(13 9)"/>
<path d="M13.3379 16.846C13.1578 16.2763 13.5142 15.6767 14.1006 15.5625L34.2314 11.6422C34.7604 11.5391 35.2757 11.874 35.3964 12.3993L38.1133 24.2168C38.2407 24.7712 37.8807 25.3204 37.3215 25.4246L18.1011 29.0066C17.6046 29.0991 17.1172 28.8068 16.9651 28.3252L13.3379 16.846Z" fill="#E9E171"/>
<line y1="-0.5" x2="12.3958" y2="-0.5" transform="matrix(0.205811 0.978592 -0.978508 0.20621 27.0316 14.1075)" stroke="#1E201D" stroke-opacity="0.51" stroke-dasharray="2 2"/>
<rect width="28.6366" height="26.1236" fill="black" fill-opacity="0" transform="translate(0 24.3183) rotate(-30)"/>
<path d="M29.8716 35.8049C29.8036 36.344 29.3176 36.7296 28.7772 36.6734L7.43987 34.4561C6.8653 34.3964 6.46021 33.8637 6.55628 33.2942L8.60101 21.1722C8.69132 20.6368 9.1924 20.2717 9.72981 20.3498L30.4532 23.3591C30.9929 23.4375 31.3708 23.9339 31.3024 24.475L29.8716 35.8049Z" fill="#A386AF"/>
<line y1="-0.5" x2="12.708" y2="-0.5" transform="matrix(-0.113247 0.993567 -0.993457 -0.11421 25.5491 22.8373)" stroke="#1E201D" stroke-opacity="0.51" stroke-dasharray="2 2"/>
<rect width="42" height="36" fill="black" fill-opacity="0" transform="translate(24 4)"/>
<path d="M25.27 37.2411C24.8567 36.8832 24.8071 36.2593 25.1585 35.8405L36.4274 22.412C37.1764 21.5195 38.5259 21.4546 39.3572 22.2712L41.222 24.1031C41.622 24.496 41.6213 25.1413 41.2206 25.5333L28.0389 38.4274C27.6673 38.7908 27.0797 38.8086 26.6868 38.4683L25.27 37.2411Z" fill="#E16973"/>
<rect width="12.3123" height="4.66228" rx="1" transform="translate(44.469 33.9243) scale(0.999316 1.00068) rotate(-135)" fill="#E16973"/>
<path d="M42.4155 31.2805C42.073 30.9375 42.0254 30.3979 42.3027 30.0002L54.6616 12.2684C54.9561 11.8459 55.5227 11.7164 55.971 11.9689L59.5143 13.9647C60.0502 14.2666 60.1893 14.9769 59.807 15.4591L45.8148 33.1077C45.4435 33.576 44.7477 33.6159 44.3255 33.1931L42.4155 31.2805Z" fill="#E16973"/>
<path d="M59.5172 8.20625C60.1759 7.90628 60.9252 8.38495 60.9311 9.10944L60.9984 17.4074C61.0047 18.181 60.1689 18.6683 59.4995 18.2812L51.4414 13.6225C50.7373 13.2155 50.7868 12.1824 51.5265 11.8455L59.5172 8.20625Z" fill="#E16973"/>
</svg>
